<svg aria-hidden="true" style="position: absolute; width: 0; height: 0; overflow: hidden;" version="1.1" xmlns="http://www.w3.org/2000/svg" xmlns:xlink="http://www.w3.org/1999/xlink">
<defs>
<symbol id="icon-twiter" viewBox="0 0 32 32">
<path d="M27.36 8.634c-0.521 0.227-1.063 0.407-1.618 0.537 0.612-0.572 1.072-1.287 1.332-2.086v0c0.074-0.228-0.178-0.425-0.387-0.303v0c-0.773 0.451-1.605 0.789-2.474 1.005-0.050 0.013-0.102 0.019-0.155 0.019-0.158 0-0.312-0.058-0.433-0.163-0.924-0.801-2.113-1.243-3.348-1.243-0.534 0-1.073 0.082-1.603 0.243-1.64 0.5-2.906 1.831-3.303 3.474-0.149 0.616-0.189 1.232-0.12 1.832 0.008 0.069-0.025 0.117-0.046 0.14-0.036 0.040-0.087 0.062-0.14 0.062-0.006 0-0.012-0-0.018-0.001-3.591-0.328-6.829-2.030-9.118-4.791v0c-0.117-0.141-0.341-0.124-0.434 0.033v0c-0.448 0.756-0.685 1.621-0.685 2.502 0 1.349 0.551 2.62 1.508 3.547-0.402-0.094-0.792-0.242-1.154-0.439v0c-0.175-0.096-0.391 0.027-0.393 0.224v0c-0.025 2.004 1.168 3.787 2.955 4.59-0.036 0.001-0.072 0.001-0.108 0.001-0.283 0-0.57-0.027-0.852-0.080v0c-0.197-0.037-0.363 0.147-0.302 0.335v0c0.58 1.781 2.139 3.094 4.005 3.392-1.549 1.023-3.352 1.562-5.229 1.562l-0.585-0c-0.18 0-0.333 0.116-0.379 0.287-0.045 0.169 0.038 0.348 0.192 0.436 2.115 1.211 4.527 1.851 6.978 1.851 2.145 0 4.151-0.419 5.963-1.244 1.661-0.757 3.129-1.839 4.363-3.216 1.149-1.283 2.048-2.763 2.671-4.401 0.594-1.561 0.908-3.226 0.908-4.817v-0.076c-0-0.255 0.117-0.496 0.322-0.659 0.777-0.621 1.454-1.351 2.012-2.172v0c0.147-0.217-0.085-0.488-0.327-0.382v0z"></path>
</symbol>
<symbol id="icon-instagram" viewBox="0 0 32 32">
<path d="M16.001 3.2c-3.476 0-3.913 0.015-5.278 0.077-1.363 0.062-2.293 0.278-3.107 0.595-0.842 0.327-1.556 0.764-2.267 1.476s-1.149 1.426-1.477 2.267c-0.317 0.814-0.533 1.745-0.595 3.107-0.061 1.365-0.077 1.802-0.077 5.278s0.015 3.911 0.077 5.277c0.063 1.363 0.278 2.293 0.595 3.107 0.327 0.842 0.765 1.556 1.476 2.268s1.425 1.15 2.267 1.477c0.814 0.316 1.745 0.532 3.107 0.595 1.365 0.062 1.801 0.077 5.277 0.077s3.911-0.015 5.277-0.077c1.363-0.062 2.294-0.278 3.108-0.595 0.842-0.327 1.555-0.765 2.266-1.477s1.149-1.426 1.477-2.267c0.315-0.814 0.531-1.745 0.595-3.107 0.061-1.365 0.077-1.801 0.077-5.277s-0.016-3.913-0.077-5.278c-0.064-1.363-0.28-2.293-0.595-3.107-0.328-0.842-0.765-1.556-1.477-2.267s-1.424-1.149-2.267-1.476c-0.816-0.317-1.747-0.532-3.109-0.595-1.365-0.062-1.8-0.077-5.277-0.077h0.004zM14.853 5.507c0.341-0.001 0.721 0 1.148 0 3.418 0 3.823 0.012 5.172 0.074 1.248 0.057 1.925 0.266 2.377 0.441 0.597 0.232 1.023 0.509 1.471 0.957s0.725 0.875 0.958 1.472c0.175 0.451 0.384 1.128 0.441 2.376 0.061 1.349 0.075 1.755 0.075 5.171s-0.013 3.821-0.075 5.171c-0.057 1.248-0.266 1.925-0.441 2.376-0.232 0.597-0.51 1.023-0.958 1.471s-0.873 0.725-1.471 0.957c-0.451 0.176-1.129 0.384-2.377 0.441-1.349 0.061-1.755 0.075-5.172 0.075s-3.823-0.013-5.172-0.075c-1.248-0.058-1.925-0.266-2.377-0.441-0.597-0.232-1.024-0.509-1.472-0.957s-0.725-0.874-0.958-1.471c-0.175-0.451-0.384-1.128-0.441-2.376-0.061-1.349-0.074-1.755-0.074-5.173s0.012-3.821 0.074-5.171c0.057-1.248 0.266-1.925 0.441-2.376 0.232-0.597 0.51-1.024 0.958-1.472s0.875-0.725 1.472-0.958c0.451-0.176 1.129-0.384 2.377-0.441 1.181-0.053 1.638-0.069 4.024-0.072v0.003zM22.834 7.632c-0.848 0-1.536 0.687-1.536 1.535s0.688 1.536 1.536 1.536 1.536-0.688 1.536-1.536c0-0.848-0.688-1.536-1.536-1.536v0.001zM16.001 9.427c-3.63 0-6.573 2.943-6.573 6.573s2.943 6.572 6.573 6.572c3.63 0 6.572-2.942 6.572-6.572s-2.942-6.573-6.573-6.573h0zM16.001 11.733c2.356 0 4.267 1.91 4.267 4.267s-1.91 4.267-4.267 4.267c-2.357 0-4.267-1.91-4.267-4.267s1.91-4.267 4.267-4.267v0z"></path>
</symbol>
<symbol id="icon-facebook" viewBox="0 0 32 32">
<path fill="#fff" style="fill: var(--color1, #fff)" d="M18.206 26.667h-4.138v-10.001h-2.068v-3.446h2.068v-2.069c0-2.811 1.167-4.484 4.485-4.484h2.761v3.447h-1.726c-1.292 0-1.377 0.482-1.377 1.38l-0.006 1.725h3.128l-0.366 3.446h-2.761v10.001h0.001z"></path>
</symbol>
</defs>
</svg>
